# xmcd
#
# Track frame offsets:
#	150
#	17207
#	34325
#	46862
#	61260
#	76305
#	89100
#	105527
#	128995
#	141637
#	157030
#	170960
#	185882
#	198707
#	215900
#	231570
#	246887
#	262072
#
# Disc length: 3667 seconds
#
# Revision: 2
# Processed by: cddbd v1.5.2PL0 Copyright (c) Steve Scherf et al.
# Submitted via: EasyCDDAExtractor 10.0.3.1
#
DISCID=270e5112
DTITLE=Various Artist - Line Dance Fever 4
DYEAR=1900
DGENRE=Country
TTITLE0=Kimber Clayton - Jose' Cuervo (Tequila Mix)
TTITLE1=Sean Kenny - Line Dance Crazy
TTITLE2=The Backsliders - Cowboy Boots
TTITLE3=Will Faeber - I Ain't Living Like That
TTITLE4=The Rankin Family - Mull River Shuffle
TTITLE5=Tim McGraw - Down On The Farm
TTITLE6=Jeff Carson - Do It Again
TTITLE7=Ronnie McDowell - Dancin' Shoes
TTITLE8=Al Anderson - Under The Hood
TTITLE9=T. Cane Honey - Crash Bam Boom
TTITLE10=Bob Woodruff - Everyday I Have To Cry
TTITLE11=Kippi Brannon - Two More To Drive Away
TTITLE12=Jo Dee Messina - You're Not In Kansas Anymore
TTITLE13=Wynonna - I Saw The Light
TTITLE14=Burnin' Daylight - Nice Work (If You Can Get It)
TTITLE15=Blake And Brian - Another Perfect Day
TTITLE16=Jim Auston - My Hat's Off To Him
TTITLE17=Sawyer Brown - The Race Is On
EXTD=
EXTT0=
EXTT1=
EXTT2=
EXTT3=
EXTT4=
EXTT5=
EXTT6=
EXTT7=
EXTT8=
EXTT9=
EXTT10=
EXTT11=
EXTT12=
EXTT13=
EXTT14=
EXTT15=
EXTT16=
EXTT17=
PLAYORDER=
